<svg version="1.1" xmlns="http://www.w3.org/2000/svg" xmlns:xlink="http://www.w3.org/1999/xlink" x="0px" y="0px"
	 viewBox="0 0 1920 1080" style="enable-background:new 0 0 1920 1080;" xml:space="preserve">
<style type="text/css">
	.st0{fill-rule:evenodd;clip-rule:evenodd;fill:none;stroke:#000000;stroke-miterlimit:10;}
	.st1{fill:none;stroke:#000000;stroke-miterlimit:10;}
</style>
<g id="varme">
	<rect id="en_5_" x="854.5" y="343" class="st1" width="20" height="100"/>
	<rect id="to_5_" x="874.5" y="343" class="st1" width="20" height="100"/>
	<rect id="tre_5_" x="894" y="343" class="st1" width="20" height="100"/>
	<rect id="fire_5_" x="914.48" y="342.89" class="st1" width="20" height="100"/>
	<rect id="fem_5_" x="934.48" y="342.89" class="st1" width="20" height="100"/>
	<rect id="seks_5_" x="953.98" y="342.89" class="st1" width="20" height="100"/>
	<rect id="syv_5_" x="973.49" y="342.95" class="st1" width="20" height="100"/>
	<rect id="otte_5_" x="993.49" y="342.95" class="st1" width="20" height="100"/>
	<rect id="ni_5_" x="1033.04" y="343.32" class="st1" width="20" height="100"/>
	<rect id="ti_5_" x="1012.99" y="342.95" class="st1" width="20" height="100"/>
	<rect id="elve_5_" x="1053.02" y="343.27" class="st1" width="20" height="100"/>
	<rect id="tolv_5_" x="1073.02" y="343.27" class="st1" width="20" height="100"/>
	<rect id="tretten_5_" x="1092.52" y="343.27" class="st1" width="20" height="100"/>
	<rect id="fjorten_5_" x="1112.69" y="343.65" class="st1" width="20" height="100"/>
	<rect id="femten_5_" x="1132.69" y="343.65" class="st1" width="20" height="100"/>
	<rect id="seksten_5_" x="1152.19" y="343.65" class="st1" width="20" height="100"/>
	<rect id="sytten_5_" x="1172.68" y="343.55" class="st1" width="20" height="100"/>
	<rect id="atten_5_" x="1192.68" y="343.55" class="st1" width="20" height="100"/>
	<rect id="netten_5_" x="1212.18" y="343.55" class="st1" width="20" height="100"/>
	<rect id="tyve_5_" x="1231.68" y="343.6" class="st1" width="20" height="100"/>
	<rect id="enogtyve_5_" x="1251.68" y="343.6" class="st1" width="20" height="100"/>
	<rect id="toogtyve_5_" x="1271.18" y="343.6" class="st1" width="20" height="100"/>
	<rect id="treogtyve_5_" x="1291.67" y="343.49" class="st1" width="20" height="100"/>
	<rect id="fireogtyve_5_" x="1311.67" y="343.49" class="st1" width="20" height="100"/>
	<rect id="femogtyve_5_" x="1331.17" y="343.49" class="st1" width="20" height="100"/>
	<rect id="seksogtyve_5_" x="1350.98" y="343.16" class="st1" width="20" height="100"/>
	<rect id="syvogsyve_5_" x="1370.98" y="343.16" class="st1" width="20" height="100"/>
	<rect id="otteogtyve_5_" x="1390.48" y="343.16" class="st1" width="20" height="100"/>
	<rect id="niogtyve_5_" x="1410.96" y="343.06" class="st1" width="20" height="100"/>
	<rect id="tredive_5_" x="1430.96" y="343.06" class="st1" width="20" height="100"/>
</g>
<g id="kulde">
	<rect id="mEn" x="833.69" y="343.33" class="st0" width="20" height="99.61"/>
	<rect id="mTo" x="814.19" y="343.28" class="st0" width="20" height="99.61"/>
	<rect id="mTre" x="794.69" y="343.28" class="st0" width="20" height="99.61"/>
	<rect id="mFire" x="774.69" y="343.28" class="st0" width="20" height="99.61"/>
	<rect id="mFem" x="754.2" y="343.39" class="st0" width="20" height="99.61"/>
	<rect id="mSeks" x="734.7" y="343.39" class="st0" width="20" height="99.61"/>
	<rect id="mSyv" x="714.7" y="343.39" class="st0" width="20" height="99.61"/>
	<rect id="mOtte" x="694.53" y="343" class="st0" width="20" height="99.61"/>
	<rect id="mNi" x="675.03" y="343" class="st0" width="20" height="99.61"/>
	<rect id="mTi" x="655.03" y="343" class="st0" width="20" height="99.61"/>
	<rect id="mElleve" x="634.55" y="343.11" class="st0" width="20" height="99.61"/>
	<rect id="mTolv" x="615.05" y="343.11" class="st0" width="20" height="99.61"/>
	<rect id="mTretten" x="595.05" y="343.11" class="st0" width="20" height="99.61"/>
	<rect id="mFjorten" x="575.54" y="343.05" class="st0" width="20" height="99.61"/>
	<rect id="mFemten" x="556.04" y="343.05" class="st0" width="20" height="99.61"/>
	<rect id="mSeksten_" x="536.04" y="343.05" class="st0" width="20" height="99.61"/>
	<rect id="mSytten" x="515.56" y="343.16" class="st0" width="20" height="99.61"/>
	<rect id="mAtten" x="496.06" y="343.16" class="st0" width="20" height="99.61"/>
	<rect id="mNitten" x="476.06" y="343.16" class="st0" width="20" height="99.61"/>
	<rect id="mTyve" x="456.02" y="343.28" class="st0" width="20" height="99.61"/>
</g>
<g id="ramme_1_">
	<g id="ramme">
		<path d="M1430.42,344v98h-973.4v-98H1430.42 M1431.42,343h-975.4v100h975.4V343L1431.42,343z"/>
	</g>
</g>
</svg>
