<?xml version="1.0" encoding="utf-8"?>
<!-- Generator: Adobe Illustrator 23.1.0, SVG Export Plug-In . SVG Version: 6.00 Build 0)  -->
<svg version="1.1" id="Layer_1" xmlns="http://www.w3.org/2000/svg" xmlns:xlink="http://www.w3.org/1999/xlink" x="0px" y="0px"
	 viewBox="0 0 300 520" style="enable-background:new 0 0 300 520;" xml:space="preserve">
<style type="text/css">
	.st0{fill:#F08080;}
	.st1{fill:none;stroke:#000000;stroke-miterlimit:10;}
	.st2{font-family:'MyriadPro-Regular';}
	.st3{font-size:12px;}
</style>
<g>
	<rect id="varme" x="140" y="10" class="st0" width="20" height="500"/>
</g>
<line class="st1" x1="100" y1="510" x2="170" y2="510"/>
<line class="st1" x1="140" y1="500" x2="150" y2="500"/>
<line class="st1" x1="140" y1="490" x2="150" y2="490"/>
<line class="st1" x1="140" y1="480" x2="150" y2="480"/>
<line class="st1" x1="140" y1="470" x2="150" y2="470"/>
<line class="st1" x1="100" y1="460" x2="170" y2="460"/>
<line class="st1" x1="140" y1="450" x2="150" y2="450"/>
<line class="st1" x1="140" y1="440" x2="150" y2="440"/>
<line class="st1" x1="140" y1="430" x2="150" y2="430"/>
<line class="st1" x1="140" y1="420" x2="150" y2="420"/>
<line class="st1" x1="100" y1="410" x2="170" y2="410"/>
<line class="st1" x1="140" y1="400" x2="150" y2="400"/>
<line class="st1" x1="140" y1="390" x2="150" y2="390"/>
<line class="st1" x1="140" y1="380" x2="150" y2="380"/>
<line class="st1" x1="140" y1="370" x2="150" y2="370"/>
<line class="st1" x1="100" y1="360" x2="170" y2="360"/>
<line class="st1" x1="140" y1="350" x2="150" y2="350"/>
<line class="st1" x1="140" y1="340" x2="150" y2="340"/>
<line class="st1" x1="140" y1="330" x2="150" y2="330"/>
<line class="st1" x1="140" y1="320" x2="150" y2="320"/>
<line class="st1" x1="130" y1="310" x2="200" y2="310"/>
<line class="st1" x1="150" y1="300" x2="160" y2="300"/>
<line class="st1" x1="150" y1="290" x2="160" y2="290"/>
<line class="st1" x1="150" y1="280" x2="160" y2="280"/>
<line class="st1" x1="150" y1="270" x2="160" y2="270"/>
<line class="st1" x1="130" y1="260" x2="200" y2="260"/>
<line class="st1" x1="150" y1="250" x2="160" y2="250"/>
<line class="st1" x1="150" y1="240" x2="160" y2="240"/>
<line class="st1" x1="150" y1="230" x2="160" y2="230"/>
<line class="st1" x1="150" y1="220" x2="160" y2="220"/>
<line class="st1" x1="130" y1="210" x2="200" y2="210"/>
<line class="st1" x1="150" y1="200" x2="160" y2="200"/>
<line class="st1" x1="150" y1="190" x2="160" y2="190"/>
<line class="st1" x1="150" y1="180" x2="160" y2="180"/>
<line class="st1" x1="150" y1="170" x2="160" y2="170"/>
<line class="st1" x1="130" y1="160" x2="200" y2="160"/>
<line class="st1" x1="150" y1="150" x2="160" y2="150"/>
<line class="st1" x1="150" y1="140" x2="160" y2="140"/>
<line class="st1" x1="150" y1="130" x2="160" y2="130"/>
<line class="st1" x1="150" y1="120" x2="160" y2="120"/>
<line class="st1" x1="130" y1="110" x2="200" y2="110"/>
<line class="st1" x1="150" y1="100" x2="160" y2="100"/>
<line class="st1" x1="150" y1="90" x2="160" y2="90"/>
<line class="st1" x1="150" y1="80" x2="160" y2="80"/>
<line class="st1" x1="150" y1="70" x2="160" y2="70"/>
<line class="st1" x1="130" y1="60" x2="200" y2="60"/>
<line class="st1" x1="150" y1="50" x2="160" y2="50"/>
<line class="st1" x1="150" y1="40" x2="160" y2="40"/>
<line class="st1" x1="150" y1="30" x2="160" y2="30"/>
<line class="st1" x1="150" y1="20" x2="160" y2="20"/>
<line class="st1" x1="130" y1="10" x2="200" y2="10"/>
<text transform="matrix(1 0 0 1 205.4678 307.9785)" class="st2 st3">0 C</text>
<text transform="matrix(1 0 0 1 204.4473 258.6172)" class="st2 st3">5 C</text>
<text transform="matrix(1 0 0 1 206.8301 207.2129)" class="st2 st3">10 C</text>
<text transform="matrix(1 0 0 1 205.8086 155.4683)" class="st2 st3">15 C</text>
<text transform="matrix(1 0 0 1 205.1279 108.1489)" class="st2 st3">20 C</text>
<text transform="matrix(1 0 0 1 208.1914 58.4468)" class="st2 st3">25 C</text>
<text transform="matrix(1 0 0 1 206.4893 9.4253)" class="st2 st3">30 C</text>
<text transform="matrix(1 0 0 1 79.8511 357)" class="st2 st3">-5 C</text>
<text transform="matrix(1 0 0 1 78.4893 402.6172)" class="st2 st3">-10 C</text>
<text transform="matrix(1 0 0 1 70.3193 453.6807)" class="st2 st3">-15 C</text>
<text transform="matrix(1 0 0 1 77.8086 502.7021)" class="st2 st3">-20 C</text>
</svg>
